<?xml version="1.0" standalone="no"?>
<!DOCTYPE svg PUBLIC "-//W3C//DTD SVG 20010904//EN"
 "http://www.w3.org/TR/2001/REC-SVG-20010904/DTD/svg10.dtd">
<svg version="1.0" xmlns="http://www.w3.org/2000/svg"
 width="2169.000000pt" height="939.000000pt" viewBox="0 0 2169.000000 939.000000"
 preserveAspectRatio="xMidYMid meet">

<g transform="translate(0.000000,939.000000) scale(0.100000,-0.100000)"
fill="#000000" stroke="none">
<path d="M8977 9383 c-4 -3 -7 -816 -7 -1805 l0 -1798 -4197 0 c-3427 1 -4198
-2 -4198 -12 0 -10 25 -14 95 -15 1085 -25 2047 -200 2995 -545 1155 -419
2212 -1071 3112 -1916 l153 -144 0 -144 0 -144 139 0 138 0 131 -147 c477
-537 913 -1171 1255 -1823 140 -267 365 -773 374 -843 6 -40 20 -57 28 -35 3
7 6 1300 8 2873 l2 2860 2857 3 2857 2 623 -391 c343 -216 754 -474 913 -574
160 -100 862 -541 1560 -980 1243 -781 1774 -1115 2104 -1322 91 -57 169 -99
173 -95 4 4 7 770 6 1700 l-3 1692 -2681 0 -2680 0 -130 82 c-71 44 -223 140
-339 213 -240 151 -2992 1880 -3550 2230 -203 128 -675 424 -1048 659 -374
234 -680 426 -681 426 -2 0 -6 -3 -9 -7z m528 -357 l480 -302 0 -1470 0 -1469
-490 0 -490 0 -3 1773 c-2 1415 0 1772 10 1771 7 0 229 -136 493 -303z m1019
-640 l476 -299 0 -1154 0 -1153 -487 2 -488 3 -3 1453 c-2 1223 0 1453 12
1450 7 -2 228 -138 490 -302z m1019 -641 l477 -299 0 -833 0 -833 -490 0 -490
0 0 1140 c0 954 2 1140 13 1133 8 -4 228 -143 490 -308z m990 -621 c260 -163
480 -303 490 -312 16 -14 17 -49 15 -521 l-3 -506 -490 0 -490 0 -3 818 c-1
449 0 817 3 817 3 0 218 -133 478 -296z m1029 -647 l483 -304 3 -196 2 -197
-490 0 -490 0 0 500 c0 275 2 500 5 500 2 0 222 -136 487 -303z m823 -517
l279 -175 -279 -3 c-154 -1 -285 0 -292 3 -19 7 -19 358 0 353 8 -2 139 -82
292 -178z m-12517 -237 c-3 -25 -7 -28 -33 -24 -16 2 -118 14 -225 26 l-195
23 228 1 228 1 -3 -27z m1012 -104 c0 -119 -1 -130 -17 -125 -122 35 -527 121
-738 156 -258 42 -235 35 -235 70 l0 30 495 0 495 0 0 -131z m1018 -166 c1
-161 1 -293 -1 -293 -2 0 -82 29 -178 64 -201 73 -451 155 -661 216 l-148 43
0 134 0 133 493 -2 492 -3 3 -292z m1012 -233 c0 -291 -2 -530 -5 -530 -3 0
-62 31 -132 68 -194 103 -635 307 -795 367 l-48 18 0 303 0 304 490 0 490 0 0
-530z m1018 -324 c2 -704 0 -847 -11 -843 -8 3 -63 40 -123 83 -202 144 -487
324 -754 476 l-95 54 -3 542 -2 542 492 -2 493 -3 3 -849z m1004 -393 c-1
-687 -4 -1260 -5 -1275 -2 -25 -11 -18 -137 99 -237 221 -548 483 -747 628
l-82 60 -1 868 0 867 488 0 487 0 -3 -1247z m1028 1072 l0 -175 -492 2 -493 3
-3 160 c-1 87 0 165 2 172 4 10 105 13 496 13 l490 0 0 -175z m1010 -2622 l0
-2798 -80 185 c-215 498 -502 1020 -821 1491 l-79 116 0 457 0 456 420 0 420
0 0 150 0 150 -420 0 -420 0 0 430 0 430 340 0 340 0 0 150 0 150 -340 0 -340
0 0 390 0 390 390 0 390 0 0 150 0 150 -390 0 -390 0 0 175 0 175 490 0 490 0
0 -2797z m6100 2706 l0 -91 -26 17 c-15 10 -77 49 -138 87 -61 39 -113 72
-115 74 -2 2 59 4 137 4 l142 0 0 -91z m1010 -314 c0 -223 -2 -405 -4 -405 -3
0 -222 137 -488 304 l-483 303 -3 102 -3 101 491 0 490 0 0 -405z m1020 -320
c0 -399 -3 -725 -7 -724 -5 0 -224 137 -488 303 l-480 303 -3 421 -2 422 490
0 490 0 0 -725z m1010 -320 l0 -1045 -68 43 c-38 23 -258 161 -490 307 l-422
265 0 738 0 737 490 0 490 0 0 -1045z m1020 -320 c0 -1145 -2 -1365 -14 -1358
-7 4 -227 143 -490 308 l-476 299 0 1058 0 1058 490 0 490 0 0 -1365z m940
-290 c0 -1041 -4 -1655 -10 -1655 -5 0 -208 125 -452 278 l-443 279 -3 1376
-2 1377 455 0 455 0 0 -1655z m-12110 615 l0 -390 -345 0 -345 0 0 390 0 390
345 0 345 0 0 -390z m0 -1120 l0 -430 -345 0 -345 0 0 430 0 430 345 0 345 0
0 -430z m0 -1160 c0 -236 -2 -430 -4 -430 -3 0 -35 42 -72 93 -143 194 -396
506 -536 658 -48 53 -88 99 -88 103 0 3 158 6 350 6 l350 0 0 -430z"/>
<path d="M9300 4131 l0 -1271 165 0 165 0 0 565 0 565 259 0 c288 0 334 -6
429 -52 142 -70 256 -218 642 -831 l155 -247 208 0 c114 0 207 2 207 5 0 8
-396 629 -471 740 -130 190 -251 312 -379 379 -57 31 -62 35 -40 40 145 30
187 41 260 69 202 77 341 221 402 417 30 96 32 288 4 389 -60 219 -206 382
-401 444 -146 47 -183 50 -912 54 l-693 4 0 -1270z m1381 963 c127 -39 216
-111 267 -214 24 -50 27 -66 27 -165 0 -100 -3 -116 -28 -170 -54 -115 -156
-193 -302 -230 -61 -16 -131 -19 -542 -22 l-473 -4 0 416 0 416 493 -3 c460
-4 496 -5 558 -24z"/>
<path d="M11870 4130 l0 -1270 170 0 170 0 0 575 0 575 595 0 595 0 0 150 0
150 -595 0 -595 0 0 395 0 395 685 0 685 0 0 150 0 150 -855 0 -855 0 0 -1270z"/>
<path d="M14080 4130 l0 -1270 170 0 170 0 0 1270 0 1270 -170 0 -170 0 0
-1270z"/>
<path d="M15102 4009 c-65 -12 -143 -51 -181 -90 -75 -75 -97 -199 -52 -292
43 -90 108 -125 341 -188 85 -23 171 -50 192 -60 75 -38 103 -107 73 -185 -32
-84 -130 -130 -263 -122 -158 9 -246 80 -276 221 -6 26 -9 27 -68 27 l-61 0 6
-52 c16 -154 127 -268 296 -304 212 -45 402 23 479 171 21 41 26 64 26 125 0
89 -21 137 -84 194 -55 50 -105 70 -290 117 -182 47 -228 69 -254 122 -53 109
51 207 219 207 130 0 208 -45 241 -138 l19 -52 63 0 63 0 -7 38 c-16 93 -69
170 -150 218 -77 45 -225 64 -332 43z"/>
<path d="M15810 3486 l0 -516 70 0 70 0 0 209 0 209 198 4 c222 6 274 17 341
75 22 18 52 59 68 91 24 50 28 69 28 147 0 81 -3 95 -30 144 -16 29 -45 66
-65 82 -66 55 -108 62 -407 67 l-273 4 0 -516z m550 372 c58 -30 90 -84 90
-155 0 -63 -13 -99 -48 -136 -43 -45 -105 -57 -289 -57 l-163 0 0 185 0 185
183 0 c170 0 186 -2 227 -22z"/>
<path d="M16853 3503 c-106 -274 -195 -506 -199 -515 -5 -16 2 -18 64 -18 l71
0 19 53 c11 28 37 100 58 160 l39 107 214 -2 214 -3 60 -157 61 -158 77 0 77
0 -48 118 c-27 64 -123 295 -213 512 l-163 395 -70 3 -69 3 -192 -498z m385
24 c23 -59 42 -109 42 -112 0 -3 -75 -5 -166 -5 -154 0 -166 1 -159 18 48 118
107 282 125 342 12 41 24 82 27 90 3 8 24 -39 47 -105 24 -66 62 -168 84 -228z"/>
</g>
</svg>
